<svg width="115" height="31" viewBox="0 0 115 31" fill="none" xmlns="http://www.w3.org/2000/svg">
<path fill-rule="evenodd" clip-rule="evenodd" d="M21.6671 30.3639C21.4611 30.4249 21.2585 30.5215 21.0524 30.5322C20.592 30.5586 20.1275 30.5429 19.6637 30.5429C18.2659 30.5429 18.2692 30.5396 17.7329 29.2929C14.5935 21.9761 11.4508 14.6584 8.30637 7.34158C7.37807 5.17574 6.44309 3.0132 5.51478 0.845707C5.41803 0.621285 5.35965 0.382836 5.24121 0.0239251C6.34634 0.0239251 7.35388 0.00329801 8.35892 0.0445521C8.51239 0.0511528 8.71006 0.316004 8.78846 0.502473C10.5575 4.59983 12.3073 8.7038 14.0705 12.8028C15.8488 16.9447 17.6345 21.0875 19.4285 25.2203C19.5845 25.5858 19.8172 25.9224 20.0157 26.2715C20.567 27.6361 21.1158 29.0008 21.6671 30.3639Z" fill="white" fill-opacity="0.84"/>
<path fill-rule="evenodd" clip-rule="evenodd" d="M21.6671 30.3639C21.1157 29.0008 20.5669 27.6361 20.0156 26.2714C23.688 17.731 27.3628 9.18894 31.0169 0.639433C31.2212 0.165836 31.4631 -0.0189827 31.9852 0.0107202C32.8376 0.0577499 33.6925 0.0239216 34.6692 0.0239216C34.5641 0.325077 34.4999 0.551149 34.4065 0.769796C30.1978 10.5751 25.9808 20.3795 21.7671 30.184C21.7413 30.2467 21.7004 30.3044 21.6671 30.3639Z" fill="white"/>
<path fill-rule="evenodd" clip-rule="evenodd" d="M2.13684 0.0165094C2.66897 0.0165094 3.13688 -0.0321705 3.58727 0.0379615C3.82748 0.0750903 4.15526 0.27146 4.24701 0.480206C6.29295 5.20298 8.31221 9.93813 10.3448 14.6675C12.5034 19.6939 14.6694 24.7137 16.833 29.7352C16.9289 29.9604 16.9989 30.1972 17.1165 30.5306C16.5919 30.5306 16.1449 30.5966 15.737 30.5033C15.5035 30.4514 15.2557 30.1741 15.149 29.9373C14.1706 27.7674 13.2173 25.5858 12.2648 23.406C10.8561 20.1774 9.45487 16.9431 8.04698 13.7129C6.09695 9.24671 4.14108 4.78054 2.19105 0.313539C2.16603 0.254958 2.1677 0.184826 2.13684 0.0165094Z" fill="white" fill-opacity="0.84"/>
<path fill-rule="evenodd" clip-rule="evenodd" d="M0 0.129526C0.718124 -0.129551 1.07427 0.0618689 1.34033 0.697183C2.96007 4.53135 4.61818 8.34983 6.25961 12.1733C7.90437 15.9984 9.54747 19.8234 11.1889 23.6485C12.1189 25.8119 13.0488 27.9753 13.9771 30.1419C14.0097 30.217 14.0138 30.3103 14.0397 30.4373C13.4475 30.6254 13.0647 30.5949 12.7853 29.934C10.8653 25.4068 8.90107 20.8994 6.96439 16.3812C4.9518 11.6931 2.95507 7.00165 0.949158 2.31435C0.636387 1.58662 0.316942 0.8589 0 0.129526Z" fill="white" fill-opacity="0.84"/>
<path d="M40.0356 28.7995C39.2266 29.4216 38.4442 29.8886 37.6886 30.1997C36.9329 30.5107 36.0847 30.6658 35.1455 30.6658C34.2873 30.6658 33.5333 30.4984 32.8844 30.1634C32.2355 29.8284 31.7342 29.3729 31.3831 28.7995C31.0319 28.2261 30.856 27.6031 30.856 26.9323C30.856 26.0264 31.1462 25.255 31.7259 24.6163C32.3064 23.9777 33.1029 23.5487 34.1163 23.3309C34.3281 23.2814 34.8561 23.1733 35.6977 23.0033C36.5392 22.8342 37.2607 22.6782 37.8612 22.5371C38.4617 22.396 39.1131 22.2236 39.8162 22.0215C39.7754 21.1485 39.5977 20.5083 39.2833 20.0998C38.9688 19.6922 38.3166 19.4884 37.3283 19.4884C36.4783 19.4884 35.8386 19.6056 35.4099 19.8399C34.9812 20.0743 34.6134 20.4257 34.3065 20.8944C34.0004 21.363 33.7835 21.6724 33.6567 21.8218C33.5299 21.9719 33.258 22.0462 32.8419 22.0462C32.4657 22.0462 32.1412 21.9266 31.8677 21.6881C31.5933 21.4497 31.4565 21.1444 31.4565 20.7731C31.4565 20.1906 31.665 19.6246 32.082 19.0751C32.4991 18.5256 33.1479 18.0726 34.0304 17.717C34.9128 17.3606 36.0113 17.184 37.3274 17.184C38.7979 17.184 39.9539 17.3556 40.7963 17.6988C41.6378 18.0429 42.2317 18.5858 42.5795 19.33C42.9273 20.0743 43.1008 21.0602 43.1008 22.288C43.1008 23.0635 43.0991 23.7228 43.0949 24.2649C43.0908 24.8069 43.0849 25.4092 43.0766 26.071C43.0766 26.6939 43.1808 27.3424 43.3893 28.0165C43.5979 28.6914 43.7021 29.1262 43.7021 29.3201C43.7021 29.6592 43.5412 29.9687 43.2175 30.2475C42.8939 30.5264 42.5294 30.6658 42.1207 30.6658C41.7771 30.6658 41.4385 30.5066 41.1032 30.1873C40.7671 29.8688 40.4118 29.4051 40.0356 28.7995ZM39.8154 24.0099C39.325 24.1881 38.6127 24.3754 37.6769 24.5743C36.7411 24.7723 36.0938 24.9175 35.7344 25.0107C35.3749 25.1031 35.0321 25.2855 34.7051 25.5561C34.3782 25.8267 34.2147 26.2046 34.2147 26.6898C34.2147 27.1906 34.4065 27.6172 34.7902 27.9687C35.1739 28.321 35.6768 28.4967 36.2982 28.4967C36.9596 28.4967 37.5701 28.3531 38.1306 28.0668C38.6903 27.7797 39.1006 27.4101 39.3625 26.9571C39.6653 26.4563 39.8162 25.632 39.8162 24.4835V24.0099H39.8154Z" fill="white"/>
<path d="M54.952 28.7995C54.1429 29.4216 53.3606 29.8886 52.6049 30.1997C51.8493 30.5107 51.001 30.6658 50.0619 30.6658C49.2037 30.6658 48.4497 30.4984 47.8008 30.1634C47.1519 29.8284 46.6506 29.3729 46.2995 28.7995C45.9483 28.2261 45.7723 27.6031 45.7723 26.9323C45.7723 26.0264 46.0626 25.255 46.6423 24.6163C47.2228 23.9777 48.0193 23.5487 49.0327 23.3309C49.2445 23.2814 49.7725 23.1733 50.614 23.0033C51.4556 22.8342 52.1771 22.6782 52.7776 22.5371C53.3781 22.396 54.0295 22.2236 54.7326 22.0215C54.6918 21.1485 54.5141 20.5083 54.1997 20.0998C53.8852 19.6922 53.233 19.4884 52.2446 19.4884C51.3947 19.4884 50.755 19.6056 50.3263 19.8399C49.8976 20.0743 49.5298 20.4257 49.2228 20.8944C48.9167 21.363 48.6999 21.6724 48.5731 21.8218C48.4463 21.9719 48.1744 22.0462 47.7582 22.0462C47.3821 22.0462 47.0576 21.9266 46.784 21.6881C46.5096 21.4497 46.3729 21.1444 46.3729 20.7731C46.3729 20.1906 46.5814 19.6246 46.9984 19.0751C47.4154 18.5256 48.0643 18.0726 48.9468 17.717C49.8292 17.3606 50.9277 17.184 52.2438 17.184C53.7142 17.184 54.8702 17.3556 55.7126 17.6988C56.5542 18.0429 57.1481 18.5858 57.4959 19.33C57.8437 20.0743 58.0171 21.0602 58.0171 22.288C58.0171 23.0635 58.0155 23.7228 58.0113 24.2649C58.0071 24.8069 58.0005 25.4092 57.993 26.071C57.993 26.6939 58.0972 27.3424 58.3057 28.0165C58.5142 28.6914 58.6185 29.1262 58.6185 29.3201C58.6185 29.6592 58.4575 29.9687 58.1339 30.2475C57.8111 30.5264 57.4458 30.6658 57.0371 30.6658C56.6935 30.6658 56.3549 30.5066 56.0196 30.1873C55.6826 29.8688 55.3273 29.4051 54.952 28.7995ZM54.731 24.0099C54.2405 24.1881 53.5282 24.3754 52.5924 24.5743C51.6566 24.7723 51.0094 24.9175 50.6499 25.0107C50.2904 25.1031 49.9476 25.2855 49.6207 25.5561C49.2937 25.8267 49.1303 26.2046 49.1303 26.6898C49.1303 27.1906 49.3221 27.6172 49.7058 27.9687C50.0894 28.321 50.5924 28.4967 51.2137 28.4967C51.8751 28.4967 52.4857 28.3531 53.0462 28.0668C53.6058 27.7797 54.0162 27.4101 54.2781 26.9571C54.5808 26.4563 54.7318 25.632 54.7318 24.4835V24.0099H54.731Z" fill="white"/>
<path d="M64.7188 25.8903V28.6543C64.7188 29.3251 64.5603 29.8292 64.2409 30.1642C63.9223 30.4992 63.5186 30.6667 63.0282 30.6667C62.5461 30.6667 62.1491 30.4975 61.8388 30.1576C61.5285 29.8185 61.3726 29.3168 61.3726 28.6543V19.439C61.3726 17.9522 61.9155 17.2088 63.0032 17.2088C63.5586 17.2088 63.959 17.382 64.2034 17.7302C64.4486 18.0776 64.5837 18.5908 64.6079 19.2698C65.0074 18.5908 65.4186 18.0776 65.8398 17.7302C66.261 17.382 66.8223 17.2088 67.5254 17.2088C68.2285 17.2088 68.91 17.382 69.5722 17.7302C70.2345 18.0776 70.5648 18.538 70.5648 19.1122C70.5648 19.5165 70.4238 19.8507 70.1419 20.1122C69.86 20.3754 69.5555 20.5074 69.2286 20.5074C69.106 20.5074 68.8091 20.4324 68.3403 20.283C67.8707 20.1337 67.4554 20.0594 67.0959 20.0594C66.6063 20.0594 66.2059 20.1865 65.8957 20.4414C65.5846 20.6964 65.3444 21.0743 65.1725 21.5751C65.0007 22.0759 64.8823 22.6716 64.8172 23.363C64.7513 24.0528 64.7188 24.896 64.7188 25.8903Z" fill="white"/>
<path d="M72.8766 17.5H73.2436V15.5116C73.2436 14.9786 73.2578 14.5602 73.287 14.2566C73.3153 13.953 73.3954 13.6923 73.5255 13.4744C73.6556 13.2484 73.8441 13.0644 74.0894 12.9224C74.3346 12.7814 74.6081 12.7104 74.9101 12.7104C75.3354 12.7104 75.7199 12.868 76.0627 13.1832C76.2913 13.3936 76.4364 13.6493 76.4973 13.953C76.5582 14.2566 76.589 14.6873 76.589 15.2442V17.4992H77.8151C78.288 17.4992 78.65 17.6106 78.8994 17.8325C79.1488 18.0545 79.273 18.3391 79.273 18.6865C79.273 19.1312 79.0954 19.4431 78.7401 19.6205C78.3839 19.7987 77.876 19.887 77.2137 19.887H76.589V25.9736C76.589 26.4909 76.6074 26.8886 76.6441 27.1675C76.6808 27.4464 76.7784 27.6725 76.9385 27.8466C77.097 28.0206 77.3572 28.1065 77.7167 28.1065C77.9127 28.1065 78.1788 28.0726 78.5132 28.0033C78.8485 27.9348 79.1104 27.9002 79.2972 27.9002C79.5666 27.9002 79.8102 28.0074 80.027 28.222C80.2431 28.4365 80.3523 28.7013 80.3523 29.0165C80.3523 29.5495 80.0571 29.9588 79.469 30.2409C78.881 30.5231 78.0353 30.665 76.9318 30.665C75.8859 30.665 75.0936 30.4909 74.5539 30.1436C74.0143 29.7962 73.6615 29.3152 73.4938 28.7013C73.3262 28.0867 73.2419 27.2665 73.2419 26.2401V19.887H72.8007C72.3186 19.887 71.9508 19.7739 71.6981 19.5479C71.4454 19.3218 71.3186 19.0347 71.3186 18.6865C71.3186 18.3391 71.4512 18.0545 71.7173 17.8325C71.9833 17.6106 72.3704 17.5 72.8766 17.5Z" fill="white"/>
<path d="M90.0408 28.7995C89.2318 29.4216 88.4495 29.8886 87.6946 30.1997C86.939 30.5107 86.0899 30.6658 85.1508 30.6658C84.2933 30.6658 83.5385 30.4984 82.8888 30.1634C82.2399 29.8284 81.7386 29.3729 81.3883 28.7995C81.0363 28.2261 80.8604 27.6031 80.8604 26.9323C80.8604 26.0264 81.1506 25.255 81.7303 24.6163C82.3108 23.9777 83.1073 23.5487 84.1207 23.3309C84.3334 23.2814 84.8605 23.1733 85.7021 23.0033C86.5436 22.8342 87.2643 22.6782 87.8656 22.5371C88.467 22.396 89.1175 22.2236 89.8207 22.0215C89.7798 21.1485 89.6021 20.5083 89.2877 20.0998C88.9724 19.6922 88.321 19.4884 87.3327 19.4884C86.4819 19.4884 85.843 19.6056 85.4135 19.8399C84.9848 20.0743 84.617 20.4257 84.3109 20.8944C84.0048 21.363 83.7879 21.6724 83.6611 21.8218C83.5352 21.9719 83.2633 22.0462 82.8463 22.0462C82.4701 22.0462 82.1456 21.9266 81.8721 21.6881C81.5985 21.4497 81.4617 21.1444 81.4617 20.7731C81.4617 20.1906 81.6702 19.6246 82.0864 19.0751C82.5026 18.5256 83.1523 18.0726 84.0356 17.717C84.9181 17.3606 86.0165 17.184 87.3327 17.184C88.8031 17.184 89.9583 17.3556 90.8007 17.6988C91.6422 18.0429 92.2361 18.5858 92.5839 19.33C92.9317 20.0743 93.1043 21.0602 93.1043 22.288C93.1043 23.0635 93.1027 23.7228 93.0985 24.2649C93.0943 24.8069 93.0877 25.4092 93.0802 26.071C93.0802 26.6939 93.1844 27.3424 93.3929 28.0165C93.6014 28.6914 93.7057 29.1262 93.7057 29.3201C93.7057 29.6592 93.5447 29.9687 93.2219 30.2475C92.8983 30.5264 92.533 30.6658 92.1252 30.6658C91.7824 30.6658 91.4429 30.5066 91.1076 30.1873C90.7715 29.8688 90.417 29.4051 90.0408 28.7995ZM89.8207 24.0099C89.3302 24.1881 88.6179 24.3754 87.6821 24.5743C86.7471 24.7723 86.0991 24.9175 85.7396 25.0107C85.3801 25.1031 85.0365 25.2855 84.7112 25.5561C84.3834 25.8267 84.2208 26.2046 84.2208 26.6898C84.2208 27.1906 84.4118 27.6172 84.7954 27.9687C85.1799 28.321 85.6821 28.4967 86.3043 28.4967C86.9657 28.4967 87.5762 28.3531 88.1359 28.0668C88.6955 27.7805 89.1059 27.4101 89.3678 26.9571C89.6697 26.4563 89.8215 25.632 89.8215 24.4835V24.0099H89.8207Z" fill="white"/>
<path d="M99.5324 19.0396V19.439C100.12 18.6708 100.764 18.1081 101.462 17.7475C102.161 17.3878 102.964 17.2088 103.87 17.2088C104.754 17.2088 105.542 17.3977 106.237 17.7781C106.931 18.1576 107.449 18.6956 107.793 19.3903C108.013 19.7946 108.157 20.2319 108.222 20.6997C108.287 21.1683 108.32 21.7665 108.32 22.4942V28.6535C108.32 29.3168 108.167 29.8177 107.86 30.1568C107.553 30.4967 107.156 30.6658 106.665 30.6658C106.166 30.6658 105.762 30.4918 105.452 30.1444C105.141 29.797 104.985 29.3003 104.985 28.6526V23.1361C104.985 22.0454 104.832 21.2104 104.526 20.6328C104.22 20.0545 103.608 19.7657 102.693 19.7657C102.097 19.7657 101.553 19.9414 101.064 20.2929C100.573 20.6452 100.214 21.1279 99.9844 21.7418C99.8218 22.2352 99.74 23.1568 99.74 24.5066V28.6526C99.74 29.3234 99.5824 29.8276 99.268 30.1625C98.9535 30.4975 98.5473 30.665 98.0486 30.665C97.5665 30.665 97.1695 30.4909 96.86 30.1436C96.5489 29.7962 96.3938 29.2995 96.3938 28.6518V19.0883C96.3938 18.4579 96.5323 17.9868 96.8108 17.6758C97.0877 17.3647 97.4681 17.2096 97.9502 17.2096C98.2446 17.2096 98.5098 17.2781 98.7467 17.415C98.9835 17.5528 99.1737 17.7591 99.3163 18.0338C99.4606 18.3078 99.5324 18.6427 99.5324 19.0396Z" fill="white"/>
<path d="M113.345 15.6691C112.879 15.6691 112.482 15.5272 112.15 15.2442C111.82 14.9612 111.654 14.5611 111.654 14.0437C111.654 13.5759 111.823 13.1889 112.162 12.8861C112.5 12.5833 112.895 12.4315 113.344 12.4315C113.778 12.4315 114.161 12.5693 114.496 12.8441C114.832 13.1188 115 13.5182 115 14.0437C115 14.5528 114.837 14.9513 114.51 15.2376C114.183 15.5256 113.795 15.6691 113.345 15.6691ZM115 19.0883V28.6543C115 29.3177 114.841 29.8185 114.522 30.1576C114.204 30.4975 113.799 30.6667 113.309 30.6667C112.818 30.6667 112.42 30.4926 112.113 30.1452C111.806 29.7979 111.654 29.3012 111.654 28.6535V19.1848C111.654 18.5305 111.807 18.0371 112.113 17.7063C112.419 17.3746 112.818 17.2087 113.309 17.2087C113.799 17.2087 114.204 17.3738 114.522 17.7063C114.841 18.0371 115 18.4984 115 19.0883Z" fill="white"/>
</svg>
